# xmcd
#
# Track frame offsets: 
#        182
#        18330
#        40872
#        55682
#        75495
#        92985
#        109995
#        128377
#        146842
#        164280
#        179780
#        198397
#        221707
#        242515
#        258207
#        274662
#        295890
#
# Disc length: 4200 seconds
#
# Revision: 1
# Processed by: cddbd v1.5.2PL0 Copyright (c) Steve Scherf et al.
# Submitted via: ExactAudioCopy v0.95b4
#
DISCID=f3106611
DTITLE=Various Artist - Baladas de Platino - CD5
DYEAR=1993
DGENRE=Latin
TTITLE0=Gloria Estefan - Si Voy A Perderte
TTITLE1=Jose Luis Perales - La Espera
TTITLE2=Angeles Ochoa - Yo No Digo Que Te Amo
TTITLE3=Emmanuel - Quisiera
TTITLE4=Jose Luis Rodriguez - Rondando Caminos
TTITLE5=Lola Flores y Lolita - Apuesta Por El Amor
TTITLE6=Hombres G - Te Necesito
TTITLE7=Luis Angel - Flor Dormida
TTITLE8=Ana Gabriel - Besos Prohibidos
TTITLE9=Vicente Fernandez y Roberto Carlos - Aunque Mal Paguen Ellas
TTITLE10=Laureano Brizuela - Contigo O Sin Ti
TTITLE11=Guillermo Fernandez - Con El Corazon En La Mano
TTITLE12=Franco De Vita - No Basta
TTITLE13=Marianne - Enciendo Una Vela
TTITLE14=Compania Ilimitada - Siempre Estare
TTITLE15=Simone y Pablo Milanes - Yolanda
TTITLE16=Chayanne - Completamente Enamorados
EXTD=
EXTT0=
EXTT1=
EXTT2=
EXTT3=
EXTT4=
EXTT5=
EXTT6=
EXTT7=
EXTT8=
EXTT9=
EXTT10=
EXTT11=
EXTT12=
EXTT13=
EXTT14=
EXTT15=
EXTT16=
PLAYORDER=
